<svg xmlns="http://www.w3.org/2000/svg" id="canvas" viewBox="287.555 314.609 1646.477 237.922"><path d="M 323.54,329.19 C 322.20 330.42, 322.12 332.11, 321.49 335.79 C 320.86 339.47, 321.07 341.68, 320.39 347.58 C 319.70 353.47, 319.29 357.45, 318.07 365.24 C 316.85 373.04, 316.06 377.51, 314.28 386.57 C 312.51 395.63, 311.34 400.68, 309.19 410.55 C 307.04 420.41, 305.76 425.83, 303.56 435.89 C 301.35 445.95, 300.10 451.20, 298.16 460.85 C 296.21 470.50, 295.21 475.44, 293.82 484.14 C 292.43 492.84, 291.83 497.00, 291.20 504.34 C 290.57 511.69, 290.42 514.99, 290.67 520.85 C 290.91 526.71, 291.11 529.22, 292.44 533.65 C 293.78 538.08, 294.60 540.06, 297.34 543.01 C 300.08 545.95, 302.10 547.08, 306.15 548.37 C 310.20 549.66, 312.61 549.60, 317.59 549.46 C 322.57 549.33, 325.23 548.70, 331.05 547.68 C 336.87 546.66, 340.17 545.84, 346.69 544.35 C 353.21 542.87, 356.83 541.91, 363.66 540.26 C 370.48 538.61, 374.09 537.69, 380.81 536.11 C 387.53 534.52, 391.34 533.68, 397.26 532.34 C 403.18 531.00, 406.15 530.62, 410.41 529.42 C 414.66 528.22, 417.10 527.70, 418.53 526.34 C 419.96 524.98, 419.46 523.12, 417.57 522.62 C 415.67 522.12, 413.37 522.96, 409.05 523.83 C 404.74 524.71, 401.87 525.51, 395.99 526.99 C 390.10 528.47, 386.33 529.57, 379.63 531.24 C 372.93 532.91, 369.32 533.81, 362.51 535.36 C 355.70 536.92, 352.05 537.77, 345.57 539.00 C 339.10 540.23, 335.75 540.85, 330.14 541.51 C 324.54 542.17, 321.90 542.40, 317.56 542.31 C 313.21 542.22, 311.41 541.94, 308.40 541.06 C 305.38 540.19, 304.50 539.81, 302.47 537.93 C 300.45 536.05, 299.62 535.16, 298.26 531.67 C 296.89 528.18, 296.24 525.89, 295.66 520.48 C 295.08 515.08, 295.00 511.79, 295.35 504.63 C 295.71 497.47, 296.20 493.31, 297.43 484.68 C 298.65 476.06, 299.60 471.13, 301.48 461.51 C 303.36 451.90, 304.60 446.65, 306.83 436.61 C 309.05 426.57, 310.35 421.16, 312.62 411.32 C 314.89 401.47, 316.13 396.43, 318.18 387.39 C 320.23 378.36, 321.22 373.91, 322.89 366.14 C 324.56 358.37, 325.33 354.44, 326.54 348.56 C 327.74 342.68, 328.57 340.53, 328.89 336.74 C 329.22 332.96, 329.25 331.16, 328.18 329.65 C 327.11 328.14, 324.88 327.96, 323.54 329.19" style="stroke: black; fill: black;"/><path d="M 519.17,431.09 C 519.44 429.41, 519.00 428.32, 517.62 426.64 C 516.24 424.96, 515.16 423.67, 512.28 422.70 C 509.41 421.74, 507.12 421.43, 503.23 421.80 C 499.35 422.17, 497.28 422.83, 492.85 424.55 C 488.42 426.27, 485.99 427.29, 481.07 430.41 C 476.14 433.53, 473.37 435.51, 468.23 440.14 C 463.10 444.76, 460.27 447.68, 455.41 453.52 C 450.55 459.37, 447.96 462.90, 443.94 469.38 C 439.92 475.86, 437.99 479.56, 435.30 485.94 C 432.61 492.33, 431.56 495.66, 430.48 501.30 C 429.40 506.94, 429.08 509.65, 429.88 514.14 C 430.68 518.63, 431.57 521.10, 434.47 523.76 C 437.36 526.41, 440.07 527.34, 444.35 527.41 C 448.63 527.48, 451.10 526.46, 455.88 524.10 C 460.66 521.74, 463.09 519.81, 468.23 515.62 C 473.36 511.43, 476.20 508.68, 481.56 503.14 C 486.91 497.61, 489.83 494.05, 495.01 487.93 C 500.18 481.81, 502.85 478.25, 507.43 472.56 C 512.01 466.87, 514.28 463.86, 517.90 459.47 C 521.52 455.08, 523.80 453.18, 525.52 450.61 C 527.24 448.03, 526.89 446.84, 526.52 446.60 C 526.16 446.36, 524.35 446.74, 523.69 449.40 C 523.04 452.06, 523.59 454.58, 523.23 459.90 C 522.87 465.22, 522.51 469.15, 521.89 476.00 C 521.28 482.85, 520.73 487.13, 520.16 494.15 C 519.59 501.17, 519.27 505.14, 519.04 511.09 C 518.80 517.04, 518.62 519.87, 519.00 523.88 C 519.37 527.90, 519.82 529.77, 520.89 531.16 C 521.95 532.56, 523.52 532.35, 524.32 530.85 C 525.13 529.36, 524.84 527.59, 524.92 523.67 C 525.01 519.75, 524.63 517.08, 524.76 511.27 C 524.89 505.46, 524.94 501.53, 525.58 494.62 C 526.22 487.71, 526.96 483.51, 527.96 476.72 C 528.97 469.94, 529.79 466.19, 530.61 460.71 C 531.43 455.24, 532.76 452.78, 532.07 449.36 C 531.38 445.95, 529.54 444.32, 527.17 443.64 C 524.80 442.96, 522.97 443.46, 520.23 445.96 C 517.50 448.46, 516.80 451.39, 513.49 456.13 C 510.19 460.87, 508.12 463.89, 503.72 469.66 C 499.33 475.42, 496.65 478.96, 491.52 484.96 C 486.38 490.96, 483.42 494.44, 478.06 499.66 C 472.70 504.88, 469.73 507.42, 464.71 511.05 C 459.69 514.69, 457.05 516.09, 452.98 517.82 C 448.91 519.55, 447.05 519.62, 444.36 519.69 C 441.66 519.75, 441.10 519.49, 439.49 518.13 C 437.89 516.77, 437.05 516.05, 436.34 512.87 C 435.64 509.69, 435.26 507.24, 435.96 502.22 C 436.66 497.21, 437.45 493.87, 439.84 487.80 C 442.23 481.72, 444.07 478.08, 447.93 471.85 C 451.78 465.63, 454.35 462.19, 459.12 456.67 C 463.90 451.16, 466.76 448.40, 471.80 444.28 C 476.83 440.16, 479.63 438.43, 484.30 436.06 C 488.97 433.68, 491.40 433.10, 495.16 432.41 C 498.91 431.73, 500.43 432.19, 503.07 432.65 C 505.71 433.12, 506.48 434.17, 508.35 434.75 C 510.21 435.34, 510.80 435.50, 512.39 435.56 C 513.98 435.62, 514.95 435.95, 516.31 435.06 C 517.66 434.17, 518.91 432.78, 519.17 431.09" style="stroke: black; fill: black;"/><path d="M 764.40,347.96 C 763.30 349.29, 763.32 350.61, 763.35 354.22 C 763.38 357.84, 764.12 360.15, 764.53 366.04 C 764.93 371.93, 765.30 375.85, 765.36 383.68 C 765.43 391.51, 765.28 396.11, 764.84 405.19 C 764.40 414.27, 763.96 419.42, 763.17 429.09 C 762.38 438.75, 761.80 443.95, 760.88 453.52 C 759.97 463.09, 759.44 468.08, 758.58 476.93 C 757.72 485.78, 757.33 490.24, 756.60 497.76 C 755.87 505.29, 755.55 508.95, 754.95 514.54 C 754.35 520.14, 753.49 522.58, 753.60 525.76 C 753.70 528.93, 754.47 529.32, 755.46 530.41 C 756.45 531.50, 757.59 531.38, 758.55 531.22 C 759.51 531.05, 760.72 530.07, 760.25 529.60 C 759.78 529.13, 756.78 528.70, 756.20 528.85 C 755.61 529.00, 756.62 530.15, 757.32 530.37 C 758.02 530.58, 758.92 530.85, 759.68 529.93 C 760.45 529.01, 761.02 528.79, 761.14 525.77 C 761.25 522.74, 760.31 520.33, 760.24 514.80 C 760.17 509.26, 760.38 505.59, 760.79 498.08 C 761.19 490.57, 761.54 486.10, 762.27 477.26 C 763.00 468.41, 763.51 463.43, 764.42 453.86 C 765.32 444.29, 765.91 439.09, 766.80 429.40 C 767.70 419.72, 768.19 414.57, 768.90 405.45 C 769.61 396.32, 769.95 391.69, 770.34 383.78 C 770.74 375.87, 770.75 371.91, 770.89 365.90 C 771.02 359.90, 771.44 357.44, 771.03 353.77 C 770.62 350.10, 770.16 348.71, 768.83 347.55 C 767.51 346.39, 765.50 346.62, 764.40 347.96" style="stroke: black; fill: black;"/><path d="M 731.63,355.09 C 733.27 354.69, 733.81 353.63, 735.51 351.39 C 737.20 349.15, 737.25 347.18, 740.11 343.91 C 742.96 340.63, 744.83 338.26, 749.76 335.01 C 754.70 331.77, 758.04 330.08, 764.79 327.69 C 771.53 325.30, 775.73 324.19, 783.49 323.06 C 791.24 321.94, 795.70 321.65, 803.56 322.06 C 811.43 322.47, 815.65 323.10, 822.80 325.10 C 829.94 327.11, 833.53 328.69, 839.28 332.10 C 845.03 335.51, 847.63 337.71, 851.53 342.15 C 855.44 346.60, 856.93 349.16, 858.81 354.35 C 860.70 359.53, 861.13 362.44, 860.95 368.09 C 860.78 373.73, 860.11 376.79, 857.93 382.55 C 855.74 388.31, 854.00 391.40, 850.03 396.89 C 846.06 402.38, 843.41 405.27, 838.08 410.01 C 832.76 414.76, 829.44 417.04, 823.40 420.62 C 817.37 424.20, 813.89 425.68, 807.91 427.91 C 801.92 430.15, 798.76 430.98, 793.49 431.78 C 788.22 432.58, 785.48 432.27, 781.56 431.91 C 777.63 431.54, 776.20 430.28, 773.87 429.96 C 771.55 429.64, 771.07 430.22, 769.91 430.30 C 768.76 430.39, 768.80 430.06, 768.09 430.39 C 767.38 430.73, 766.52 431.03, 766.36 431.98 C 766.21 432.92, 766.18 433.78, 767.32 435.10 C 768.46 436.43, 769.25 437.88, 772.09 438.62 C 774.92 439.37, 776.99 439.10, 781.48 438.83 C 785.97 438.56, 788.89 438.54, 794.53 437.28 C 800.17 436.02, 803.44 435.05, 809.70 432.52 C 815.95 429.99, 819.51 428.44, 825.81 424.64 C 832.11 420.83, 835.56 418.49, 841.18 413.50 C 846.81 408.52, 849.63 405.56, 853.92 399.73 C 858.21 393.90, 860.19 390.64, 862.62 384.35 C 865.05 378.05, 865.90 374.59, 866.08 368.24 C 866.27 361.89, 865.73 358.45, 863.54 352.60 C 861.34 346.75, 859.51 343.85, 855.11 338.97 C 850.71 334.10, 847.78 331.82, 841.55 328.23 C 835.31 324.63, 831.49 323.07, 823.94 320.99 C 816.39 318.91, 812.00 318.29, 803.79 317.83 C 795.58 317.36, 791.00 317.64, 782.89 318.66 C 774.77 319.68, 770.47 320.72, 763.22 322.94 C 755.97 325.15, 752.35 326.65, 746.63 329.75 C 740.91 332.84, 738.44 335.03, 734.62 338.40 C 730.81 341.77, 729.02 343.59, 727.56 346.58 C 726.09 349.58, 726.47 351.67, 727.29 353.37 C 728.10 355.07, 729.98 355.49, 731.63 355.09" style="stroke: black; fill: black;"/><path d="M 921.94,328.93 C 920.73 330.03, 920.40 330.98, 920.18 334.17 C 919.96 337.37, 920.79 339.41, 920.83 344.91 C 920.86 350.41, 920.95 354.05, 920.36 361.67 C 919.77 369.29, 919.22 373.94, 917.86 383.01 C 916.51 392.09, 915.49 397.35, 913.58 407.05 C 911.67 416.76, 910.45 422.04, 908.31 431.55 C 906.16 441.05, 904.89 446.01, 902.84 454.59 C 900.79 463.16, 899.71 467.47, 898.06 474.43 C 896.40 481.39, 895.49 484.47, 894.57 489.40 C 893.66 494.33, 892.66 496.31, 893.47 499.09 C 894.29 501.87, 896.19 503.09, 898.63 503.31 C 901.08 503.53, 903.07 502.90, 905.70 500.20 C 908.32 497.49, 908.83 494.65, 911.75 489.76 C 914.68 484.88, 916.36 481.55, 920.32 475.77 C 924.29 469.99, 926.80 466.45, 931.60 460.87 C 936.39 455.29, 939.16 452.28, 944.29 447.85 C 949.42 443.42, 952.25 441.52, 957.22 438.74 C 962.20 435.96, 964.84 435.01, 969.15 433.96 C 973.47 432.91, 975.46 433.00, 978.78 433.51 C 982.10 434.01, 983.33 434.57, 985.76 436.49 C 988.19 438.40, 989.23 439.55, 990.94 443.07 C 992.64 446.60, 993.40 449.01, 994.28 454.12 C 995.16 459.23, 995.29 462.59, 995.36 468.60 C 995.43 474.61, 995.14 478.43, 994.64 484.16 C 994.13 489.90, 993.35 492.99, 992.83 497.28 C 992.32 501.56, 991.84 503.09, 992.04 505.58 C 992.25 508.07, 992.95 508.86, 993.84 509.73 C 994.73 510.59, 995.49 510.61, 996.50 509.92 C 997.50 509.23, 998.17 508.65, 998.87 506.28 C 999.57 503.90, 999.60 502.38, 1000.00 498.04 C 1000.40 493.70, 1000.59 490.49, 1000.88 484.59 C 1001.17 478.69, 1001.49 474.85, 1001.45 468.55 C 1001.41 462.25, 1001.51 458.80, 1000.68 453.10 C 999.84 447.40, 999.39 444.51, 997.28 440.05 C 995.17 435.58, 993.67 433.41, 990.14 430.77 C 986.61 428.12, 984.15 427.31, 979.64 426.81 C 975.13 426.31, 972.61 426.76, 967.60 428.25 C 962.60 429.73, 959.91 431.05, 954.61 434.24 C 949.31 437.43, 946.46 439.52, 941.11 444.19 C 935.76 448.86, 932.95 451.96, 927.87 457.60 C 922.80 463.24, 920.17 466.77, 915.74 472.39 C 911.31 478.01, 909.14 481.20, 905.73 485.69 C 902.32 490.18, 900.29 492.03, 898.69 494.84 C 897.10 497.64, 897.52 498.96, 897.75 499.72 C 897.98 500.48, 899.35 500.55, 899.84 498.66 C 900.33 496.76, 899.71 494.90, 900.21 490.23 C 900.70 485.56, 901.06 482.28, 902.31 475.32 C 903.57 468.36, 904.60 464.02, 906.48 455.42 C 908.37 446.82, 909.62 441.85, 911.75 432.32 C 913.88 422.79, 915.11 417.50, 917.14 407.78 C 919.17 398.05, 920.25 392.79, 921.91 383.69 C 923.57 374.58, 924.32 369.93, 925.45 362.25 C 926.59 354.56, 926.94 350.90, 927.57 345.27 C 928.21 339.64, 928.88 337.43, 928.61 334.11 C 928.35 330.80, 927.57 329.72, 926.24 328.69 C 924.90 327.65, 923.15 327.84, 921.94 328.93" style="stroke: black; fill: black;"/><path d="M 1103.58,436.40 C 1103.58 434.65, 1102.94 433.45, 1101.13 431.84 C 1099.33 430.24, 1097.85 428.93, 1094.56 428.39 C 1091.27 427.85, 1088.82 428.22, 1084.69 429.12 C 1080.57 430.03, 1078.36 430.81, 1073.94 432.92 C 1069.52 435.04, 1067.10 436.41, 1062.58 439.71 C 1058.06 443.00, 1055.59 445.04, 1051.35 449.42 C 1047.10 453.79, 1044.85 456.45, 1041.36 461.59 C 1037.88 466.73, 1036.20 469.71, 1033.93 475.11 C 1031.65 480.51, 1030.73 483.45, 1029.97 488.59 C 1029.22 493.72, 1029.08 496.43, 1030.15 500.79 C 1031.23 505.14, 1032.36 507.57, 1035.34 510.36 C 1038.31 513.14, 1040.78 514.20, 1045.03 514.71 C 1049.28 515.22, 1051.81 514.60, 1056.57 512.93 C 1061.33 511.25, 1063.90 509.71, 1068.83 506.36 C 1073.76 503.01, 1076.34 500.72, 1081.21 496.18 C 1086.08 491.63, 1088.64 488.77, 1093.17 483.62 C 1097.70 478.46, 1100.00 475.40, 1103.88 470.39 C 1107.76 465.39, 1109.55 462.68, 1112.57 458.60 C 1115.59 454.52, 1117.62 452.83, 1118.99 449.99 C 1120.35 447.15, 1120.12 445.50, 1119.39 444.39 C 1118.66 443.27, 1116.62 442.99, 1115.34 444.41 C 1114.06 445.83, 1113.69 447.52, 1112.99 451.50 C 1112.30 455.47, 1112.40 458.61, 1111.89 464.29 C 1111.37 469.97, 1111.01 473.68, 1110.42 479.91 C 1109.84 486.13, 1109.49 489.90, 1108.98 495.42 C 1108.48 500.93, 1108.06 503.61, 1107.90 507.49 C 1107.75 511.36, 1107.56 512.66, 1108.19 514.79 C 1108.83 516.93, 1110.07 517.51, 1111.09 518.18 C 1112.12 518.85, 1112.84 518.39, 1113.32 518.14 C 1113.81 517.90, 1113.32 517.25, 1113.52 516.96 C 1113.71 516.66, 1113.85 517.26, 1114.29 516.68 C 1114.73 516.10, 1115.47 515.89, 1115.73 514.07 C 1115.99 512.25, 1115.64 511.24, 1115.59 507.59 C 1115.53 503.95, 1115.22 501.25, 1115.46 495.86 C 1115.71 490.46, 1116.00 486.72, 1116.80 480.62 C 1117.60 474.52, 1118.37 470.92, 1119.47 465.38 C 1120.58 459.85, 1121.77 457.05, 1122.33 452.94 C 1122.88 448.83, 1123.31 447.03, 1122.26 444.83 C 1121.20 442.63, 1119.12 441.75, 1117.04 441.92 C 1114.96 442.09, 1113.82 443.04, 1111.87 445.69 C 1109.92 448.33, 1109.76 450.84, 1107.29 455.13 C 1104.81 459.41, 1103.12 462.12, 1099.51 467.12 C 1095.89 472.11, 1093.62 475.14, 1089.21 480.12 C 1084.79 485.10, 1082.20 487.84, 1077.44 492.02 C 1072.67 496.19, 1070.01 498.21, 1065.39 501.00 C 1060.76 503.79, 1058.18 504.81, 1054.29 505.96 C 1050.40 507.11, 1048.66 507.06, 1045.95 506.77 C 1043.24 506.47, 1042.48 506.07, 1040.73 504.50 C 1038.98 502.93, 1038.06 501.95, 1037.20 498.93 C 1036.33 495.91, 1035.94 493.71, 1036.39 489.40 C 1036.84 485.09, 1037.47 482.28, 1039.43 477.37 C 1041.38 472.47, 1042.92 469.60, 1046.17 464.87 C 1049.41 460.14, 1051.61 457.63, 1055.65 453.72 C 1059.69 449.80, 1062.13 447.97, 1066.38 445.29 C 1070.64 442.61, 1073.05 441.55, 1076.93 440.32 C 1080.80 439.08, 1082.70 438.97, 1085.77 439.10 C 1088.85 439.22, 1090.05 440.48, 1092.30 440.94 C 1094.55 441.39, 1095.27 441.43, 1097.03 441.37 C 1098.80 441.30, 1099.82 441.60, 1101.13 440.61 C 1102.44 439.62, 1103.58 438.16, 1103.58 436.40" style="stroke: black; fill: black;"/><path d="M 1165.86,456.53 C 1164.39 457.57, 1163.66 458.83, 1163.15 461.62 C 1162.63 464.41, 1163.32 466.36, 1163.29 470.48 C 1163.26 474.61, 1163.31 477.53, 1163.01 482.26 C 1162.71 486.99, 1162.41 489.70, 1161.80 494.16 C 1161.18 498.61, 1160.31 500.99, 1159.93 504.54 C 1159.56 508.10, 1159.09 509.83, 1159.93 511.91 C 1160.77 514.00, 1162.21 514.75, 1164.13 514.98 C 1166.04 515.21, 1167.99 514.94, 1169.51 513.06 C 1171.03 511.18, 1170.91 509.40, 1171.72 505.58 C 1172.54 501.75, 1172.43 498.98, 1173.58 493.94 C 1174.72 488.89, 1175.47 485.82, 1177.44 480.36 C 1179.41 474.91, 1180.68 471.90, 1183.42 466.66 C 1186.16 461.43, 1187.83 458.71, 1191.14 454.19 C 1194.45 449.67, 1196.30 447.51, 1199.98 444.07 C 1203.66 440.63, 1205.66 439.22, 1209.54 436.99 C 1213.41 434.76, 1215.42 433.98, 1219.35 432.92 C 1223.28 431.85, 1225.36 431.64, 1229.19 431.66 C 1233.02 431.69, 1235.34 432.64, 1238.48 433.05 C 1241.62 433.45, 1242.68 433.73, 1244.88 433.69 C 1247.08 433.64, 1248.33 433.67, 1249.48 432.81 C 1250.63 431.96, 1251.14 430.82, 1250.61 429.40 C 1250.08 427.99, 1249.02 426.86, 1246.81 425.74 C 1244.60 424.62, 1243.17 424.19, 1239.56 423.80 C 1235.94 423.42, 1233.19 423.33, 1228.74 423.83 C 1224.29 424.33, 1221.81 424.77, 1217.31 426.31 C 1212.81 427.85, 1210.54 428.84, 1206.25 431.53 C 1201.96 434.22, 1199.81 435.91, 1195.86 439.77 C 1191.92 443.63, 1190.03 446.00, 1186.53 450.83 C 1183.02 455.66, 1181.34 458.50, 1178.35 463.94 C 1175.36 469.38, 1174.02 472.48, 1171.58 478.01 C 1169.14 483.55, 1168.11 486.64, 1166.14 491.62 C 1164.16 496.61, 1162.89 499.16, 1161.70 502.95 C 1160.52 506.74, 1159.79 508.36, 1160.22 510.57 C 1160.64 512.79, 1162.31 513.67, 1163.82 514.03 C 1165.34 514.39, 1166.74 514.07, 1167.80 512.37 C 1168.86 510.68, 1168.73 509.01, 1169.12 505.55 C 1169.51 502.10, 1169.33 499.60, 1169.77 495.09 C 1170.21 490.58, 1170.74 487.83, 1171.31 483.01 C 1171.88 478.20, 1172.18 475.24, 1172.62 471.00 C 1173.05 466.76, 1173.91 464.71, 1173.49 461.80 C 1173.07 458.88, 1172.06 457.47, 1170.54 456.42 C 1169.01 455.37, 1167.34 455.49, 1165.86 456.53" style="stroke: black; fill: black;"/><path d="M 1292.62,432.78 C 1291.11 433.48, 1290.21 434.25, 1289.46 436.67 C 1288.70 439.08, 1289.15 440.80, 1288.85 444.86 C 1288.56 448.93, 1288.58 451.68, 1287.98 456.99 C 1287.38 462.30, 1286.85 465.57, 1285.85 471.42 C 1284.85 477.26, 1284.13 480.70, 1282.99 486.23 C 1281.85 491.76, 1281.05 494.63, 1280.15 499.06 C 1279.24 503.48, 1278.00 505.47, 1278.45 508.35 C 1278.91 511.24, 1280.29 512.55, 1282.43 513.47 C 1284.58 514.39, 1286.88 514.69, 1289.17 512.95 C 1291.45 511.21, 1291.76 508.98, 1293.86 504.77 C 1295.95 500.57, 1296.88 497.55, 1299.65 491.91 C 1302.43 486.27, 1304.22 482.70, 1307.72 476.58 C 1311.21 470.47, 1313.26 466.96, 1317.12 461.34 C 1320.98 455.72, 1323.12 452.82, 1327.01 448.46 C 1330.90 444.10, 1333.07 442.17, 1336.55 439.54 C 1340.03 436.91, 1341.91 436.30, 1344.41 435.31 C 1346.91 434.33, 1347.74 434.25, 1349.05 434.61 C 1350.37 434.97, 1350.10 435.27, 1350.98 437.11 C 1351.85 438.95, 1352.77 440.21, 1353.41 443.81 C 1354.05 447.42, 1354.28 450.10, 1354.16 455.14 C 1354.05 460.18, 1353.63 463.53, 1352.85 469.01 C 1352.07 474.49, 1351.27 477.70, 1350.28 482.53 C 1349.29 487.36, 1347.83 489.67, 1347.91 493.18 C 1347.98 496.69, 1348.70 498.39, 1350.64 500.06 C 1352.59 501.74, 1354.89 502.65, 1357.64 501.55 C 1360.39 500.45, 1361.38 498.36, 1364.39 494.55 C 1367.40 490.73, 1368.88 487.72, 1372.67 482.47 C 1376.46 477.21, 1378.79 473.83, 1383.35 468.29 C 1387.91 462.75, 1390.66 459.59, 1395.46 454.76 C 1400.27 449.93, 1402.88 447.47, 1407.38 444.14 C 1411.88 440.80, 1414.23 439.62, 1417.96 438.08 C 1421.70 436.54, 1423.46 436.45, 1426.06 436.43 C 1428.65 436.41, 1429.20 436.75, 1430.92 437.98 C 1432.65 439.20, 1433.33 439.78, 1434.67 442.54 C 1436.01 445.30, 1436.81 447.30, 1437.62 451.78 C 1438.44 456.25, 1438.63 459.29, 1438.74 464.91 C 1438.85 470.53, 1438.56 474.00, 1438.19 479.87 C 1437.81 485.75, 1437.29 489.00, 1436.85 494.29 C 1436.42 499.59, 1436.00 502.47, 1436.01 506.36 C 1436.03 510.25, 1436.20 511.65, 1436.92 513.74 C 1437.65 515.83, 1438.61 516.32, 1439.64 516.82 C 1440.67 517.33, 1441.32 517.01, 1442.07 516.28 C 1442.83 515.54, 1443.04 515.14, 1443.40 513.15 C 1443.75 511.17, 1443.87 510.05, 1443.86 506.34 C 1443.85 502.63, 1443.28 499.84, 1443.37 494.62 C 1443.46 489.41, 1443.95 486.21, 1444.33 480.27 C 1444.70 474.32, 1445.15 470.83, 1445.26 464.91 C 1445.38 458.99, 1445.53 455.86, 1444.88 450.68 C 1444.23 445.49, 1443.91 442.93, 1442.02 438.99 C 1440.13 435.06, 1438.70 433.01, 1435.44 431.00 C 1432.18 429.00, 1429.75 428.69, 1425.72 428.96 C 1421.70 429.24, 1419.66 430.19, 1415.33 432.37 C 1411.00 434.54, 1408.76 436.08, 1404.06 439.85 C 1399.37 443.61, 1396.81 446.18, 1391.86 451.17 C 1386.90 456.17, 1384.15 459.36, 1379.29 464.81 C 1374.43 470.26, 1371.82 473.53, 1367.57 478.43 C 1363.33 483.34, 1361.03 485.93, 1358.07 489.33 C 1355.12 492.74, 1353.58 493.74, 1352.78 495.47 C 1351.98 497.20, 1353.33 498.27, 1354.08 497.97 C 1354.82 497.68, 1355.85 496.83, 1356.51 493.98 C 1357.18 491.13, 1356.79 488.52, 1357.41 483.72 C 1358.02 478.92, 1358.77 475.62, 1359.59 469.98 C 1360.41 464.33, 1361.08 460.98, 1361.50 455.51 C 1361.91 450.04, 1362.23 447.26, 1361.69 442.63 C 1361.15 437.99, 1360.96 435.45, 1358.80 432.33 C 1356.65 429.22, 1354.37 427.86, 1350.91 427.05 C 1347.46 426.24, 1345.19 426.73, 1341.52 428.26 C 1337.86 429.80, 1336.29 431.40, 1332.57 434.74 C 1328.85 438.08, 1326.86 440.21, 1322.93 444.95 C 1318.99 449.69, 1316.89 452.68, 1312.91 458.45 C 1308.94 464.22, 1306.87 467.74, 1303.07 473.79 C 1299.26 479.84, 1297.23 483.35, 1293.89 488.71 C 1290.55 494.06, 1288.75 496.78, 1286.37 500.58 C 1283.98 504.39, 1282.47 505.60, 1281.96 507.73 C 1281.44 509.86, 1282.82 511.02, 1283.79 511.23 C 1284.77 511.44, 1286.11 510.98, 1286.83 508.78 C 1287.54 506.57, 1286.89 504.48, 1287.37 500.21 C 1287.85 495.93, 1288.27 492.93, 1289.23 487.41 C 1290.18 481.89, 1290.94 478.45, 1292.15 472.61 C 1293.37 466.77, 1294.14 463.52, 1295.32 458.22 C 1296.50 452.92, 1297.23 450.22, 1298.05 446.13 C 1298.88 442.03, 1299.66 440.35, 1299.45 437.76 C 1299.24 435.16, 1298.38 434.15, 1297.01 433.15 C 1295.65 432.16, 1294.14 432.07, 1292.62 432.78" style="stroke: black; fill: black;"/><path d="M 1548.24,446.33 C 1548.57 444.67, 1548.19 443.50, 1546.88 441.79 C 1545.56 440.07, 1544.46 438.83, 1541.66 437.77 C 1538.86 436.71, 1536.63 436.28, 1532.86 436.48 C 1529.10 436.68, 1526.97 437.35, 1522.84 438.77 C 1518.71 440.20, 1516.53 441.11, 1512.21 443.61 C 1507.90 446.11, 1505.48 447.63, 1501.26 451.28 C 1497.04 454.92, 1494.79 457.24, 1491.10 461.84 C 1487.41 466.44, 1485.54 469.18, 1482.81 474.27 C 1480.07 479.36, 1478.86 482.23, 1477.44 487.30 C 1476.03 492.37, 1475.59 495.06, 1475.73 499.64 C 1475.88 504.22, 1476.20 506.65, 1478.18 510.18 C 1480.16 513.72, 1481.99 515.63, 1485.63 517.29 C 1489.28 518.96, 1491.92 519.11, 1496.39 518.51 C 1500.86 517.92, 1503.21 516.81, 1508.00 514.32 C 1512.78 511.83, 1515.34 510.02, 1520.30 506.05 C 1525.25 502.09, 1527.93 499.47, 1532.78 494.48 C 1537.63 489.49, 1540.16 486.39, 1544.54 481.11 C 1548.92 475.82, 1551.07 472.81, 1554.68 468.07 C 1558.29 463.32, 1560.23 460.95, 1562.58 457.38 C 1564.93 453.81, 1566.23 452.18, 1566.43 450.22 C 1566.63 448.26, 1564.92 447.19, 1563.58 447.58 C 1562.23 447.97, 1560.78 448.95, 1559.71 452.17 C 1558.64 455.39, 1558.89 458.28, 1558.23 463.69 C 1557.58 469.11, 1557.14 472.88, 1556.43 479.25 C 1555.73 485.62, 1555.15 489.40, 1554.70 495.54 C 1554.26 501.69, 1553.98 504.79, 1554.19 509.98 C 1554.39 515.17, 1554.47 517.72, 1555.72 521.51 C 1556.97 525.29, 1558.36 526.95, 1560.42 528.89 C 1562.49 530.84, 1564.16 531.02, 1566.03 531.24 C 1567.90 531.46, 1569.00 530.90, 1569.77 529.99 C 1570.54 529.07, 1570.18 527.62, 1569.88 526.68 C 1569.57 525.73, 1568.92 525.98, 1568.25 525.26 C 1567.57 524.54, 1567.55 524.36, 1566.51 523.06 C 1565.46 521.76, 1564.20 521.47, 1563.01 518.77 C 1561.83 516.07, 1561.05 514.10, 1560.58 509.54 C 1560.11 504.99, 1560.23 501.87, 1560.68 495.99 C 1561.13 490.11, 1561.73 486.34, 1562.82 480.16 C 1563.91 473.98, 1564.87 470.36, 1566.12 465.10 C 1567.37 459.84, 1568.90 457.43, 1569.05 453.85 C 1569.21 450.27, 1568.46 448.64, 1566.89 447.18 C 1565.33 445.73, 1563.29 445.30, 1561.22 446.58 C 1559.16 447.85, 1558.79 449.92, 1556.56 453.56 C 1554.33 457.20, 1553.29 459.94, 1550.07 464.79 C 1546.86 469.64, 1544.72 472.61, 1540.50 477.79 C 1536.28 482.97, 1533.73 486.00, 1528.97 490.70 C 1524.20 495.40, 1521.48 497.84, 1516.68 501.30 C 1511.88 504.77, 1509.22 506.18, 1504.97 508.03 C 1500.73 509.87, 1498.63 510.23, 1495.45 510.54 C 1492.28 510.84, 1491.14 510.41, 1489.10 509.54 C 1487.05 508.66, 1486.43 508.21, 1485.21 506.16 C 1484.00 504.10, 1483.29 502.69, 1483.00 499.25 C 1482.72 495.80, 1482.72 493.36, 1483.77 488.95 C 1484.83 484.53, 1485.84 481.81, 1488.27 477.18 C 1490.70 472.55, 1492.49 469.94, 1495.94 465.80 C 1499.40 461.66, 1501.58 459.56, 1505.54 456.48 C 1509.50 453.40, 1511.82 452.16, 1515.73 450.40 C 1519.64 448.64, 1521.77 448.12, 1525.09 447.67 C 1528.42 447.21, 1529.86 447.63, 1532.35 448.11 C 1534.84 448.58, 1535.70 449.55, 1537.54 450.04 C 1539.38 450.54, 1540.01 450.58, 1541.55 450.59 C 1543.08 450.61, 1543.86 450.95, 1545.19 450.09 C 1546.53 449.24, 1547.90 447.99, 1548.24 446.33" style="stroke: black; fill: black;"/><path d="M 1684.51,440.50 C 1684.10 438.85, 1683.30 437.77, 1681.17 436.72 C 1679.04 435.67, 1677.35 435.05, 1673.86 435.26 C 1670.37 435.46, 1668.05 436.22, 1663.71 437.74 C 1659.36 439.26, 1656.96 440.26, 1652.13 442.84 C 1647.31 445.41, 1644.58 446.97, 1639.60 450.61 C 1634.61 454.24, 1631.80 456.42, 1627.20 460.99 C 1622.60 465.56, 1620.17 468.27, 1616.60 473.44 C 1613.02 478.61, 1611.36 481.48, 1609.31 486.84 C 1607.26 492.21, 1606.46 495.09, 1606.35 500.26 C 1606.23 505.44, 1606.63 508.30, 1608.73 512.71 C 1610.83 517.12, 1612.77 519.31, 1616.85 522.30 C 1620.93 525.29, 1623.64 526.34, 1629.14 527.66 C 1634.64 528.99, 1637.87 529.15, 1644.36 528.91 C 1650.86 528.67, 1654.50 528.08, 1661.63 526.48 C 1668.76 524.87, 1673.16 523.26, 1680.01 520.86 C 1686.86 518.47, 1690.64 516.92, 1695.89 514.51 C 1701.14 512.10, 1704.58 510.70, 1706.26 508.79 C 1707.95 506.89, 1706.80 504.75, 1704.31 504.97 C 1701.83 505.19, 1699.05 507.69, 1693.85 509.89 C 1688.65 512.10, 1684.98 513.68, 1678.31 516.00 C 1671.65 518.32, 1667.34 520.00, 1660.52 521.48 C 1653.71 522.95, 1650.21 523.34, 1644.24 523.38 C 1638.27 523.42, 1635.36 522.95, 1630.67 521.67 C 1625.98 520.39, 1623.97 519.35, 1620.77 516.98 C 1617.57 514.62, 1616.31 513.17, 1614.67 509.84 C 1613.03 506.51, 1612.56 504.54, 1612.58 500.35 C 1612.59 496.16, 1613.04 493.62, 1614.76 488.87 C 1616.48 484.12, 1617.91 481.37, 1621.18 476.60 C 1624.46 471.83, 1626.77 469.22, 1631.14 465.03 C 1635.52 460.83, 1638.27 458.76, 1643.07 455.61 C 1647.87 452.45, 1650.59 451.08, 1655.15 449.25 C 1659.70 447.42, 1662.02 446.92, 1665.83 446.46 C 1669.63 446.00, 1671.42 446.90, 1674.16 446.94 C 1676.90 446.98, 1677.72 447.06, 1679.52 446.67 C 1681.33 446.27, 1682.19 446.20, 1683.19 444.96 C 1684.18 443.73, 1684.91 442.15, 1684.51 440.50" style="stroke: black; fill: black;"/><path d="M 1759.43,449.72 C 1757.91 450.62, 1757.03 451.69, 1756.39 454.39 C 1755.75 457.09, 1756.47 458.98, 1756.22 463.23 C 1755.97 467.48, 1755.75 470.37, 1755.13 475.63 C 1754.52 480.89, 1754.05 484.03, 1753.14 489.56 C 1752.23 495.08, 1751.56 498.21, 1750.57 503.25 C 1749.58 508.29, 1748.77 510.95, 1748.18 514.76 C 1747.59 518.58, 1747.40 520.03, 1747.62 522.32 C 1747.83 524.62, 1748.38 525.38, 1749.26 526.24 C 1750.14 527.09, 1750.96 527.19, 1752.03 526.60 C 1753.10 526.00, 1753.80 525.40, 1754.61 523.27 C 1755.42 521.13, 1755.55 519.71, 1756.09 515.93 C 1756.62 512.16, 1756.56 509.43, 1757.27 504.38 C 1757.99 499.34, 1758.62 496.23, 1759.67 490.71 C 1760.71 485.20, 1761.40 482.08, 1762.48 476.81 C 1763.56 471.54, 1764.21 468.68, 1765.05 464.35 C 1765.88 460.02, 1766.87 458.07, 1766.66 455.18 C 1766.45 452.28, 1765.43 450.98, 1763.99 449.89 C 1762.54 448.80, 1760.94 448.82, 1759.43 449.72" style="stroke: black; fill: black;"/><path d="M 1778.45,383.81 C 1780.16 384.10, 1781.09 384.18, 1781.07 383.95 C 1781.05 383.72, 1779.87 383.28, 1778.35 382.64 C 1776.82 382.00, 1775.08 381.13, 1773.45 380.76 C 1771.83 380.38, 1770.42 380.41, 1770.23 380.76 C 1770.04 381.11, 1770.86 381.89, 1772.50 382.50 C 1774.14 383.11, 1776.73 383.52, 1778.45 383.81" style="stroke: black; fill: black;"/><path d="M 1827.22,478.45 C 1828.37 479.92, 1829.91 480.97, 1832.81 481.09 C 1835.72 481.21, 1837.66 480.26, 1841.72 479.05 C 1845.79 477.83, 1848.52 476.93, 1853.14 475.03 C 1857.76 473.13, 1860.32 471.87, 1864.84 469.54 C 1869.37 467.21, 1871.69 465.88, 1875.75 463.39 C 1879.81 460.90, 1881.82 459.67, 1885.14 457.08 C 1888.45 454.48, 1890.21 453.36, 1892.31 450.41 C 1894.42 447.46, 1895.25 445.63, 1895.66 442.33 C 1896.06 439.04, 1895.81 436.98, 1894.34 433.94 C 1892.87 430.89, 1891.53 428.93, 1888.32 427.12 C 1885.11 425.31, 1882.69 425.12, 1878.27 424.88 C 1873.86 424.65, 1871.32 424.92, 1866.23 425.94 C 1861.15 426.95, 1858.29 427.82, 1852.83 429.96 C 1847.37 432.11, 1844.33 433.52, 1838.96 436.67 C 1833.59 439.81, 1830.67 441.65, 1825.97 445.70 C 1821.27 449.74, 1818.92 452.07, 1815.45 456.91 C 1811.98 461.74, 1810.38 464.46, 1808.63 469.85 C 1806.88 475.24, 1806.31 478.30, 1806.70 483.85 C 1807.08 489.40, 1807.85 492.46, 1810.55 497.61 C 1813.25 502.76, 1815.33 505.37, 1820.19 509.60 C 1825.05 513.83, 1828.21 515.76, 1834.85 518.76 C 1841.48 521.76, 1845.40 522.89, 1853.35 524.60 C 1861.30 526.31, 1865.75 526.90, 1874.59 527.31 C 1883.43 527.72, 1889.13 527.26, 1897.57 526.64 C 1906.01 526.01, 1910.42 525.23, 1916.81 524.19 C 1923.20 523.15, 1927.15 522.79, 1929.52 521.44 C 1931.90 520.08, 1931.36 517.72, 1928.68 517.42 C 1926.00 517.13, 1922.42 518.97, 1916.13 519.96 C 1909.84 520.94, 1905.51 521.72, 1897.24 522.36 C 1888.97 523.01, 1883.37 523.59, 1874.78 523.19 C 1866.19 522.79, 1861.87 522.12, 1854.29 520.36 C 1846.72 518.59, 1843.00 517.33, 1836.89 514.38 C 1830.78 511.42, 1828.00 509.48, 1823.75 505.60 C 1819.50 501.72, 1817.89 499.41, 1815.65 494.98 C 1813.42 490.55, 1812.88 488.13, 1812.58 483.46 C 1812.28 478.79, 1812.67 476.29, 1814.17 471.64 C 1815.67 466.99, 1816.97 464.54, 1820.06 460.21 C 1823.16 455.88, 1825.28 453.68, 1829.64 450.00 C 1834.00 446.31, 1836.78 444.57, 1841.86 441.78 C 1846.94 438.99, 1849.93 437.72, 1855.03 436.05 C 1860.13 434.37, 1862.92 433.83, 1867.36 433.41 C 1871.80 432.99, 1874.05 433.33, 1877.23 433.97 C 1880.41 434.60, 1881.44 435.72, 1883.27 436.60 C 1885.09 437.48, 1885.66 437.50, 1886.37 438.36 C 1887.07 439.23, 1887.11 439.58, 1886.78 440.92 C 1886.45 442.27, 1886.08 443.07, 1884.71 445.09 C 1883.34 447.10, 1882.51 448.56, 1879.94 450.98 C 1877.36 453.41, 1875.51 454.82, 1871.84 457.22 C 1868.17 459.62, 1865.90 460.95, 1861.60 462.98 C 1857.31 465.01, 1854.79 465.99, 1850.37 467.36 C 1845.95 468.72, 1843.26 469.12, 1839.50 469.80 C 1835.73 470.48, 1834.02 469.96, 1831.52 470.75 C 1829.03 471.54, 1827.91 472.21, 1827.04 473.75 C 1826.18 475.29, 1826.06 476.99, 1827.22 478.45" style="stroke: black; fill: black;"/></svg>